<svg width="118" height="118" viewBox="0 0 118 118" fill="none" xmlns="http://www.w3.org/2000/svg">
<g id="account_circle_black_24dp 1" clip-path="url(#clip0_246_182)">
<g id="Group">
<g id="Group_2">
<path id="Vector" d="M59.0002 9.83337C31.8602 9.83337 9.8335 31.86 9.8335 59C9.8335 86.14 31.8602 108.167 59.0002 108.167C86.1402 108.167 108.167 86.14 108.167 59C108.167 31.86 86.1402 9.83337 59.0002 9.83337ZM36.1377 90.9584C42.5785 86.3367 50.4452 83.5834 59.0002 83.5834C67.5552 83.5834 75.4218 86.3367 81.8627 90.9584C75.4218 95.58 67.5552 98.3334 59.0002 98.3334C50.4452 98.3334 42.5785 95.58 36.1377 90.9584ZM89.1885 84.1734C80.8793 77.6834 70.4068 73.75 59.0002 73.75C47.5935 73.75 37.121 77.6834 28.8118 84.1734C23.1085 77.3392 19.6668 68.5875 19.6668 59C19.6668 37.2684 37.2685 19.6667 59.0002 19.6667C80.7318 19.6667 98.3335 37.2684 98.3335 59C98.3335 68.5875 94.8918 77.3392 89.1885 84.1734Z" fill="black"/>
<path id="Vector_2" d="M59.0003 29.5C49.5112 29.5 41.792 37.2192 41.792 46.7083C41.792 56.1975 49.5112 63.9167 59.0003 63.9167C68.4895 63.9167 76.2087 56.1975 76.2087 46.7083C76.2087 37.2192 68.4895 29.5 59.0003 29.5ZM59.0003 54.0833C54.9195 54.0833 51.6253 50.7892 51.6253 46.7083C51.6253 42.6275 54.9195 39.3333 59.0003 39.3333C63.0812 39.3333 66.3753 42.6275 66.3753 46.7083C66.3753 50.7892 63.0812 54.0833 59.0003 54.0833Z" fill="black"/>
</g>
</g>
</g>
<defs>
<clipPath id="clip0_246_182">
<rect width="118" height="118" fill="white"/>
</clipPath>
</defs>
</svg>
