<svg width="100" height="100" viewBox="0 0 100 100" fill="none" xmlns="http://www.w3.org/2000/svg">
<path d="M50.0002 0.833374C22.8602 0.833374 0.833496 22.86 0.833496 50C0.833496 77.14 22.8602 99.1667 50.0002 99.1667C77.1402 99.1667 99.1668 77.14 99.1668 50C99.1668 22.86 77.1402 0.833374 50.0002 0.833374ZM27.1377 81.9584C33.5785 77.3367 41.4452 74.5834 50.0002 74.5834C58.5552 74.5834 66.4218 77.3367 72.8627 81.9584C66.4218 86.58 58.5552 89.3334 50.0002 89.3334C41.4452 89.3334 33.5785 86.58 27.1377 81.9584ZM80.1885 75.1734C71.8793 68.6834 61.4068 64.75 50.0002 64.75C38.5935 64.75 28.121 68.6834 19.8118 75.1734C14.1085 68.3392 10.6668 59.5875 10.6668 50C10.6668 28.2684 28.2685 10.6667 50.0002 10.6667C71.7318 10.6667 89.3335 28.2684 89.3335 50C89.3335 59.5875 85.8918 68.3392 80.1885 75.1734Z" fill="black"/>
</svg>
