<svg width="129" height="129" viewBox="0 0 129 129" fill="none" xmlns="http://www.w3.org/2000/svg">
<path d="M0 129V119.325C3.655 119.002 6.58437 117.847 8.78812 115.858C10.9919 113.869 14.9425 112.875 20.64 112.875C26.3375 112.875 30.3956 113.95 32.8144 116.1C35.2331 118.25 38.485 119.325 42.57 119.325C46.655 119.325 49.9069 118.25 52.3256 116.1C54.7444 113.95 58.8025 112.875 64.5 112.875C70.1975 112.875 74.2825 113.95 76.755 116.1C79.2275 118.25 82.4525 119.325 86.43 119.325C90.515 119.325 93.7669 117.981 96.1856 115.294C98.6044 112.606 102.662 111.262 108.36 111.262C114.057 111.262 118.008 112.526 120.212 115.052C122.416 117.578 125.345 119.002 129 119.325V129C124.485 129 120.803 127.656 117.954 124.969C115.106 122.281 111.907 120.938 108.36 120.938C104.812 120.938 101.695 122.281 99.0075 124.969C96.32 127.656 92.1275 129 86.43 129C80.7325 129 76.54 127.925 73.8525 125.775C71.165 123.625 68.0475 122.55 64.5 122.55C60.9525 122.55 57.835 123.625 55.1475 125.775C52.46 127.925 48.2675 129 42.57 129C36.8725 129 32.68 127.925 29.9925 125.775C27.305 123.625 24.1875 122.55 20.64 122.55C17.0925 122.55 13.8944 123.625 11.0456 125.775C8.19688 127.925 4.515 129 0 129ZM42.57 98.3625C36.8725 98.3625 32.68 97.2875 29.9925 95.1375C27.305 92.9875 24.1875 91.9125 20.64 91.9125C17.0925 91.9125 13.8944 92.9875 11.0456 95.1375C8.19688 97.2875 4.515 98.3625 0 98.3625V88.6875C3.655 88.365 6.58437 87.2094 8.78812 85.2206C10.9919 83.2319 14.9425 82.2375 20.64 82.2375C21.8225 82.2375 23.0319 82.3181 24.2681 82.4794C25.5044 82.6406 26.6062 82.8825 27.5737 83.205L19.35 53.3737L9.3525 65.79L1.77375 59.6625L50.1487 0L121.905 27.4125L118.357 36.4425L103.522 30.7987L117.39 82.56C119.325 83.635 121.287 84.925 123.276 86.43C125.264 87.935 127.172 88.6338 129 88.5263V98.3625C124.485 98.3625 120.803 97.0187 117.954 94.3312C115.106 91.6437 111.907 90.3 108.36 90.3C104.812 90.3 101.695 91.6437 99.0075 94.3312C96.32 97.0187 92.1275 98.3625 86.43 98.3625C80.7325 98.3625 76.54 97.2875 73.8525 95.1375C71.165 92.9875 68.0475 91.9125 64.5 91.9125C60.9525 91.9125 57.835 92.9875 55.1475 95.1375C52.46 97.2875 48.2675 98.3625 42.57 98.3625ZM42.57 88.6875C45.9025 88.6875 48.8856 87.7469 51.5194 85.8656C54.1531 83.9844 57.19 82.8287 60.63 82.3987L54.6637 60.4688L76.5938 54.6637L85.4625 88.6875C89.5475 89.1175 92.9069 87.935 95.5406 85.14C98.1744 82.345 101.91 80.84 106.747 80.625L92.235 26.445L53.3737 11.4488L26.9288 44.0212L38.8612 88.2038C39.6137 88.4187 40.2587 88.5531 40.7962 88.6069C41.3337 88.6606 41.925 88.6875 42.57 88.6875Z" fill="url(#paint0_linear_209_499)" fill-opacity="0.5"/>
<defs>
<linearGradient id="paint0_linear_209_499" x1="64.5" y1="0" x2="64.5" y2="129" gradientUnits="userSpaceOnUse">
<stop stop-color="white"/>
<stop offset="1" stop-color="white" stop-opacity="0"/>
</linearGradient>
</defs>
</svg>
